<svg width="374" height="168" viewBox="0 0 374 168" fill="none" xmlns="http://www.w3.org/2000/svg">
<path d="M195.081 143.731C244.48 136.827 288.344 123.991 319.337 108.776C334.826 101.172 347.179 92.9365 355.396 84.4869C363.596 76.0548 367.866 67.2012 366.642 58.4437C365.418 49.6861 358.884 42.3423 348.687 36.4812C338.469 30.6079 324.331 26.0741 307.351 23.008C273.374 16.8728 227.671 16.5536 178.272 23.4572C128.873 30.3608 85.0083 43.1972 54.0152 58.4121C38.5263 66.0158 26.1733 74.2516 17.9566 82.7013C9.75691 91.1333 5.48715 99.9869 6.71103 108.744C7.93491 117.502 14.4683 124.846 24.6654 130.707C34.8838 136.58 49.0214 141.114 66.0014 144.18C99.9782 150.315 145.681 150.635 195.081 143.731Z" stroke="url(#paint0_linear_3_19)" stroke-width="3"/>
<path d="M33.1859 53.96H57.5059L73.4259 109H54.6259L52.5459 98.44H38.3059L35.9859 109H17.9859L33.1859 53.96ZM50.6259 88.6L45.4259 64.52L39.9859 88.6H50.6259ZM95.0434 109.64C91.4168 109.64 88.1101 108.68 85.1234 106.76C82.1901 104.84 79.8701 102.307 78.1634 99.16C76.4568 95.96 75.6034 92.5733 75.6034 89C75.6034 85.2133 76.4834 81.7467 78.2434 78.6C80.0568 75.4 82.4568 72.8933 85.4434 71.08C88.4834 69.2667 91.7101 68.36 95.1234 68.36C98.2168 68.36 100.83 69 102.963 70.28C105.15 71.56 106.91 73.6133 108.243 76.44V56.28L125.123 53.8V109H108.243V101.56C105.737 106.947 101.337 109.64 95.0434 109.64ZM100.323 97C102.563 97 104.43 96.2 105.923 94.6C107.47 93 108.243 91.1333 108.243 89V88.68C108.243 86.6 107.443 84.8133 105.843 83.32C104.243 81.7733 102.403 81 100.323 81C98.0834 81 96.1901 81.8 94.6434 83.4C93.1501 84.9467 92.4034 86.8133 92.4034 89C92.4034 91.24 93.1768 93.1333 94.7234 94.68C96.3234 96.2267 98.1901 97 100.323 97Z" fill="#2B78EC"/>
<path d="M194.192 53.96H214.032C222.246 53.96 228.592 55.56 233.072 58.76C237.606 61.96 239.872 66.44 239.872 72.2C239.872 75.8267 238.752 79 236.512 81.72C234.326 84.44 231.312 86.5467 227.472 88.04C223.686 89.48 219.472 90.2 214.832 90.2H211.472V109H194.192V53.96ZM214.912 79.08C217.739 79.08 219.926 78.4933 221.472 77.32C223.019 76.1467 223.792 74.44 223.792 72.2C223.792 69.96 223.019 68.28 221.472 67.16C219.979 66.04 217.792 65.48 214.912 65.48H211.472V78.92C212.539 79.0267 213.686 79.08 214.912 79.08ZM264.962 109.64C260.536 109.64 256.589 108.76 253.122 107C249.709 105.187 247.042 102.733 245.122 99.64C243.202 96.4933 242.242 92.9467 242.242 89C242.242 84.9467 243.229 81.3467 245.202 78.2C247.176 75.0533 249.842 72.6267 253.202 70.92C256.562 69.2133 260.296 68.36 264.402 68.36C268.349 68.36 271.709 69.24 274.482 71C277.309 72.7067 279.416 75.0533 280.802 78.04C282.189 80.9733 282.882 84.28 282.882 87.96C282.882 88.92 282.829 89.6133 282.722 90.04L258.722 93.16C259.362 95.0267 260.402 96.3867 261.842 97.24C263.282 98.04 265.176 98.44 267.522 98.44C271.149 98.44 275.069 97.5067 279.282 95.64L281.282 106.36C276.322 108.547 270.882 109.64 264.962 109.64ZM270.482 83.08C269.629 79.72 267.602 78.04 264.402 78.04C262.482 78.04 260.962 78.76 259.842 80.2C258.722 81.64 258.136 83.5067 258.082 85.8L270.482 83.08ZM306.215 109.64C301.522 109.64 297.869 108.307 295.255 105.64C292.642 102.92 291.335 99.1867 291.335 94.44V78.84H286.215V68.92H292.535L299.975 53.8H308.055V68.92H317.335V78.84H308.055V92.44C308.055 93.7733 308.482 94.8133 309.335 95.56C310.189 96.3067 311.389 96.68 312.935 96.68C314.375 96.68 315.682 96.36 316.855 95.72L317.495 106.92C316.162 107.72 314.429 108.387 312.295 108.92C310.215 109.4 308.189 109.64 306.215 109.64ZM337.301 109.64C331.701 109.64 326.794 108.813 322.581 107.16L324.421 97.64C328.261 99.0267 331.994 99.72 335.621 99.72C338.288 99.72 339.621 98.9733 339.621 97.48C339.621 96.7333 339.221 96.12 338.421 95.64C337.674 95.16 336.234 94.7333 334.101 94.36C329.674 93.5067 326.474 92.0667 324.501 90.04C322.581 88.0133 321.621 85.1333 321.621 81.4C321.834 77.1867 323.514 73.96 326.661 71.72C329.808 69.48 334.101 68.36 339.541 68.36C342.314 68.36 344.688 68.5467 346.661 68.92C348.688 69.24 350.528 69.8 352.181 70.6L350.501 80.12C348.954 79.5333 347.248 79.08 345.381 78.76C343.568 78.44 342.048 78.28 340.821 78.28C339.008 78.28 337.754 78.4667 337.061 78.84C336.368 79.2133 336.021 79.72 336.021 80.36C336.021 81.5333 337.354 82.36 340.021 82.84C344.874 83.6933 348.501 85.1867 350.901 87.32C353.301 89.4533 354.501 92.36 354.501 96.04C354.501 100.253 353.008 103.587 350.021 106.04C347.088 108.44 342.848 109.64 337.301 109.64Z" fill="#41B553"/>
<g filter="url(#filter0_d_3_19)">
<path d="M151.188 62.6043C150.403 62.7536 149.811 63.0331 149.139 63.5806C148.593 64.0209 148.203 64.4689 147.827 65.0777C145.585 68.7304 146.342 74.7571 149.486 78.2107C149.914 78.6817 150.657 79.302 151.165 79.6121C152.828 80.6344 154.699 80.688 156.199 79.7576C157.736 78.8004 158.789 76.9549 159.188 74.5159C159.287 73.8879 159.306 71.9429 159.212 71.2996C158.826 68.6118 157.844 66.3872 156.307 64.7063C155.921 64.289 155.165 63.661 154.69 63.3662C154.248 63.0944 153.411 62.7421 152.974 62.6464C152.584 62.5583 151.555 62.5353 151.188 62.6043Z" fill="#3697F1"/>
<path d="M169.666 63.3777C168.204 63.6112 166.676 64.5225 165.412 65.9086C163.785 67.689 162.685 70.0437 162.272 72.6397C162.14 73.4668 162.154 75.3123 162.295 76.0627C162.624 77.7742 163.325 79.0837 164.373 79.9337C165.271 80.6689 166.399 81.0096 167.546 80.8986C170.277 80.6229 172.97 78.1954 174.409 74.7111C175.602 71.8203 175.729 68.7764 174.752 66.4561C173.797 64.1932 171.861 63.0216 169.666 63.3777Z" fill="#3697F1"/>
<path d="M139.343 75.8751C137.42 76.124 135.972 77.3875 135.319 79.3938C134.948 80.5463 134.896 82.1353 135.187 83.5328C135.86 86.7874 138.172 89.7777 140.908 90.934C142.309 91.5237 143.705 91.6271 144.903 91.2212C146.671 90.6239 147.832 89.077 148.213 86.8065C148.288 86.3509 148.288 84.9993 148.208 84.4709C147.597 80.2515 144.405 76.549 140.856 75.9325C140.438 75.8598 139.695 75.833 139.343 75.8751Z" fill="#3697F1"/>
<path d="M179.18 78.9765C177.487 79.2713 175.828 80.24 174.451 81.7409C172.956 83.372 171.95 85.5009 171.659 87.6451C171.584 88.2041 171.598 89.4063 171.682 89.9462C172.256 93.576 175.283 95.3181 178.709 94.001C180.547 93.2926 182.211 91.8338 183.401 89.8926C185.657 86.2169 185.511 81.9094 183.057 79.9146C182.023 79.0722 180.599 78.7276 179.18 78.9765Z" fill="#3697F1"/>
<path d="M158.756 85.7881C155.644 86.2399 151.719 88.9009 148.241 92.9136C145.519 96.0571 143.601 99.4418 143.028 102.122C142.892 102.765 142.878 103.914 143 104.354C143.192 105.04 143.517 105.491 144.147 105.97C145.2 106.763 146.464 107.23 148.048 107.41C148.871 107.502 150.535 107.467 151.592 107.337C153.007 107.157 154.201 106.923 156.876 106.295C159.461 105.691 160.185 105.564 160.899 105.602C161.806 105.652 162.488 105.832 164.443 106.533C165.844 107.034 166.624 107.272 167.292 107.406C169.783 107.896 171.88 107.257 174.037 105.35C174.681 104.783 174.879 104.507 175.081 103.906C175.194 103.562 175.203 103.485 175.203 102.677C175.203 101.946 175.189 101.739 175.095 101.318C174.54 98.7641 172.89 95.678 170.507 92.7413C167.673 89.2494 164.345 86.7338 161.567 85.9872C160.556 85.7153 159.696 85.654 158.756 85.7881Z" fill="#3697F1"/>
</g>
<defs>
<filter id="filter0_d_3_19" x="131" y="62.5639" width="58" height="53" filterUnits="userSpaceOnUse" color-interpolation-filters="sRGB">
<feFlood flood-opacity="0" result="BackgroundImageFix"/>
<feColorMatrix in="SourceAlpha" type="matrix" values="0 0 0 0 0 0 0 0 0 0 0 0 0 0 0 0 0 0 127 0" result="hardAlpha"/>
<feOffset dy="4"/>
<feGaussianBlur stdDeviation="2"/>
<feComposite in2="hardAlpha" operator="out"/>
<feColorMatrix type="matrix" values="0 0 0 0 0 0 0 0 0 0 0 0 0 0 0 0 0 0 0.25 0"/>
<feBlend mode="normal" in2="BackgroundImageFix" result="effect1_dropShadow_3_19"/>
<feBlend mode="normal" in="SourceGraphic" in2="effect1_dropShadow_3_19" result="shape"/>
</filter>
<linearGradient id="paint0_linear_3_19" x1="34" y1="71" x2="312" y2="106" gradientUnits="userSpaceOnUse">
<stop stop-color="#1953E8" stop-opacity="0.39"/>
<stop offset="1" stop-color="#52D922" stop-opacity="0.49"/>
</linearGradient>
</defs>
</svg>
