<svg width="58" height="54" viewBox="0 0 58 54" fill="none" xmlns="http://www.w3.org/2000/svg">
<g filter="url(#filter0_d_3_10)">
<path d="M20.188 0.604261C19.403 0.753588 18.8108 1.03309 18.1386 1.58062C17.5933 2.02094 17.2032 2.46892 16.8271 3.07771C14.585 6.73045 15.3418 12.7571 18.4864 16.2107C18.9142 16.6817 19.6569 17.302 20.1645 17.6121C21.8285 18.6344 23.6993 18.688 25.1988 17.7576C26.7358 16.8004 27.7887 14.9549 28.1883 12.5159C28.287 11.8879 28.3058 9.94287 28.2118 9.29962C27.8263 6.61175 26.8439 4.38718 25.3069 2.70631C24.9214 2.28896 24.1646 1.66103 23.6899 1.36621C23.248 1.09436 22.4113 0.742102 21.9742 0.646379C21.5841 0.558315 20.5546 0.535341 20.188 0.604261Z" fill="#3697F1"/>
<path d="M38.6657 1.37769C37.2039 1.61125 35.6762 2.52252 34.4118 3.90857C32.7854 5.68899 31.6855 8.04375 31.2718 10.6397C31.1402 11.4668 31.1543 13.3123 31.2953 14.0627C31.6244 15.7742 32.3247 17.0837 33.3729 17.9337C34.2707 18.6689 35.3989 19.0096 36.5458 18.8986C39.2768 18.6229 41.9702 16.1954 43.4085 12.7111C44.6025 9.82034 44.7294 6.77639 43.7517 4.4561C42.7975 2.19324 40.8609 1.0216 38.6657 1.37769Z" fill="#3697F1"/>
<path d="M8.34273 13.8751C6.42022 14.124 4.97246 15.3875 4.31909 17.3938C3.94775 18.5463 3.89605 20.1353 4.18748 21.5328C4.85965 24.7874 7.1723 27.7777 9.908 28.934C11.3087 29.5237 12.7048 29.6271 13.9034 29.2212C15.6708 28.6239 16.8318 27.077 17.2126 24.8065C17.2878 24.3509 17.2878 22.9993 17.2079 22.4709C16.5968 18.2515 13.4052 14.549 9.85629 13.9325C9.43795 13.8598 8.69527 13.833 8.34273 13.8751Z" fill="#3697F1"/>
<path d="M48.1795 16.9765C46.4874 17.2713 44.8281 18.24 43.4508 19.7409C41.9561 21.372 40.9502 23.5009 40.6587 25.6451C40.5835 26.2041 40.5976 27.4063 40.6822 27.9462C41.2557 31.576 44.2828 33.3181 47.7095 32.001C49.5474 31.2926 51.2114 29.8338 52.4006 27.8926C54.6568 24.2169 54.5111 19.9094 52.0575 17.9146C51.0234 17.0722 49.5991 16.7276 48.1795 16.9765Z" fill="#3697F1"/>
<path d="M27.7558 23.7881C24.6441 24.2399 20.7192 26.9009 17.2408 30.9136C14.5192 34.0571 12.6014 37.4418 12.0279 40.122C11.8916 40.7653 11.8775 41.9139 11.9997 42.3542C12.1924 43.0396 12.5168 43.4914 13.1466 43.97C14.1996 44.7626 15.464 45.2297 17.0481 45.4097C17.8707 45.5016 19.5346 45.4671 20.5923 45.3369C22.0071 45.157 23.201 44.9234 25.8756 44.2955C28.4609 43.6905 29.1848 43.5642 29.8993 43.6024C30.8065 43.6522 31.488 43.8322 33.4434 44.5329C34.8442 45.0344 35.6245 45.2718 36.292 45.4058C38.7832 45.8959 40.8797 45.2565 43.0372 43.3497C43.6812 42.7831 43.8786 42.5074 44.0807 41.9063C44.1935 41.5617 44.2029 41.4851 44.2029 40.6772C44.2029 39.9459 44.1888 39.7391 44.0948 39.3179C43.5401 36.7641 41.8903 33.678 39.5071 30.7413C36.6727 27.2494 33.3447 24.7338 30.5667 23.9872C29.5561 23.7153 28.6959 23.654 27.7558 23.7881Z" fill="#3697F1"/>
</g>
<defs>
<filter id="filter0_d_3_10" x="0" y="0.56395" width="58" height="53" filterUnits="userSpaceOnUse" color-interpolation-filters="sRGB">
<feFlood flood-opacity="0" result="BackgroundImageFix"/>
<feColorMatrix in="SourceAlpha" type="matrix" values="0 0 0 0 0 0 0 0 0 0 0 0 0 0 0 0 0 0 127 0" result="hardAlpha"/>
<feOffset dy="4"/>
<feGaussianBlur stdDeviation="2"/>
<feComposite in2="hardAlpha" operator="out"/>
<feColorMatrix type="matrix" values="0 0 0 0 0 0 0 0 0 0 0 0 0 0 0 0 0 0 0.25 0"/>
<feBlend mode="normal" in2="BackgroundImageFix" result="effect1_dropShadow_3_10"/>
<feBlend mode="normal" in="SourceGraphic" in2="effect1_dropShadow_3_10" result="shape"/>
</filter>
</defs>
</svg>
